<?xml version="1.0" encoding="UTF-8"?>
<svg version="1.1" viewBox="0 0 1080 1080" width="1080" height="1080" xmlns="http://www.w3.org/2000/svg">
<path transform="translate(436,401)" d="m0 0h330l31 1 1 106 9-1h34l18 3 13 4 18 8 11 6 11 7 5 5 12 11 8 8 3 4v2h2l4 6 5 7 6 11 7 16 4 11 5 25v33l-3 20-4 14-5 14-9 17-8 12-12 14-12 12-12 9-19 11-11 5-17 6-12 3-10 1h-38l-3-1v121l-2 8-5 15-7 12-11 12-9 8-16 9-13 4-4 1h-379l-14-4-16-8-10-9-6-5-9-14-6-12-3-12-1-141v-394z" fill="#F47C1A"/>
<path transform="translate(436,401)" d="m0 0h330l31 1 1 106 9-1h34l18 3 13 4 18 8 11 6 11 7 5 5 12 11 8 8 3 4v2h2l4 6 5 7 6 11 7 16 4 11 5 25v33l-3 20-4 14-5 14-9 17-8 12-12 14-12 12-12 9-19 11-11 5-17 6-12 3-10 1h-38l-3-1v121l-2 8-5 15-7 12-11 12-9 8-16 9-13 4-4 1h-379l-14-4-16-8-10-9-6-5-9-14-6-12-3-12-1-141v-394zm235 40-328 1-1 4h-10l-3 9v17l2 3h6l2-1v-2l3 1 1 121 1 39 3 53 5 41 5 25 6 21 8 21 12 25 7 12 11 16 9 12 14 15 7 8 11 10 17 13 13 9 11 7 14 8 16 7 12 5 15 6 25 7 28 5h138l10-5 7-6 6-10 3-9 1-112v-376z" fill="#441536"/>
<path transform="translate(436,401)" d="m0 0h330l31 1 1 106 9-1h34l18 3 13 4 18 8 11 6 11 7 5 5 12 11 8 8 3 4v2h2l4 6 5 7 6 11 7 16 4 11 5 25v33l-3 20-4 14-5 14-9 17-8 12-12 14-12 12-12 9-19 11-11 5-17 6-12 3-10 1h-38l-3-1v121l-1 6h-1l-1-121-1 63v40l-1 18h-3l-1 4-6-1-5-5-1-2h2l-2-5-6-2-4-11v-2l-6-1-3 14h-1v-110l1-376-87 1h-328l-8-1v-1h254l-1-2-27-3-7-2-3-3-5-2v-2h-2l-1-8v-10l8-2v-1l33-2-148-1z" fill="#7A3226"/>
<path transform="translate(327,441)" d="m0 0h16v5l-3 1-8-1-2 9v17l1 2h8v-2l4 1 1 121 1 39 3 53 5 41 5 25 6 21 8 21 12 25 7 12 11 16 9 12 14 15 7 8 10 9 17 13 13 9 11 7 14 8 16 7 12 5 15 6 25 7 28 5 62 1v1l-64 1h-97l-140-1-10-4-9-8-5-7-4-11v-371z" fill="#661652"/>
<path transform="translate(671,441)" d="m0 0h87v376h-2l-4-45-1-11-2-60-1-44v-40l-9 4h-4l-1 3 5 1-1 4-7 3h-10l2-8-8 3 2 5h-7l1-3-7 1-17-5-3-5-2-1-12-2-12-6-10-11-5-10-13-10-5-8-5-6-4-10-2-11-4-8-1-10v-15l2-4 5-2v-42l2-6h-2v-2l-21 2h-19v-4l16-4 12-2 16-3 28-3z" fill="#FBAD00"/>
<path transform="translate(817,546)" d="m0 0h16l16 3 15 5 17 9 16 13 11 11 10 16 7 14 5 14 2 5 1 5v20l-1 16-5 20-6 15-3 7-9 12-6 7-10 8-13 10-16 8-20 6-11 2h-35l-1-222 9-3z" fill="#893f09"/>
<path transform="translate(568,45)" d="m0 0 10 1 18 7 19 10 10 6v2l4 2 8 6 5 6 5 5 7 10 5 11 4 18v12l-4 16-7 13-8 9-6 7-14 11-11 7-16 9-31 15-24 11h-3v2l-16 9-13 10-11 9-8 9-6 9-1 3-2 1-4 14v26l7 21 8 13 5 7h-4l-12-11-5-5-11-15-6-12-3-9v-26l3-10 8-16 8-10 8-8h2l2-4 4-1 1-3h3v-3l11-7 16-10 21-11 23-11 30-15 14-10 11-9 8-11 7-15 1-4v-21l-4-13-6-10-9-11-8-8-13-9-10-6-19-11z" fill="#7B3227"/>
<path transform="translate(795,810)" d="m0 0h1v130l-5 15-7 12-11 12-9 8-16 9-13 4-1-2h-106l-8-1v-2h2l1-7-9 1-2-1v-4l-3-1-1-8-8-1-23-1-4-5-3-2v-2l-68-1-144-1-3-2h236l140-2 10-5 6-5 6-10 5-14 2-11h4l3 1 4 11v2l6 1 2 6v2l4 4 6 2 1-4h3l-1-4 1-14v-40l1-63z" fill="#521D32"/>
<path transform="translate(621,219)" d="m0 0h10l2 2-1 7 5 2 4 5 3 7v14l-4 10-9 12-5 5-3 1 2-5 7-11 4-11v-9l-3-8-7-5-5 1-6 5h-4l-1-2-3-2 7-10z" fill="#8D4023"/>
<path transform="translate(865,777)" d="m0 0 5 1 4 4 5 2h9l5 2-2 5-10 4-7 3-2 1-14-5-4-4v-5l5-2 1-2 3-1z" fill="#793227"/>
</svg>
